<svg width="458" height="458" fill="none" xmlns="http://www.w3.org/2000/svg"><circle cx="229" cy="229" r="229" fill="#65F0D5"/><mask id="a" maskUnits="userSpaceOnUse" x="0" y="0" width="458" height="458"><circle cx="229" cy="229" r="229" fill="#fff"/></mask><g mask="url(#a)"><path fill-rule="evenodd" clip-rule="evenodd" d="M445.12-150c0 6.627-5.372 12-12 12-6.627 0-12-5.373-12-12v-156c0-6.627 5.373-12 12-12 6.628 0 12 5.373 12 12v156zm0 220c0 6.627-5.372 12-12 12-6.627 0-12-5.373-12-12V-8h-.01c-.262-6.395-5.53-11.5-11.99-11.5S397.392-14.395 397.13-8h-.01v160c0 6.627-5.372 12-12 12-6.627 0-12-5.373-12-12v-257c0-6.627 5.373-12 12-12 6.628 0 12 5.373 12 12v49c0 6.627 5.373 12 12 12 6.628 0 12-5.373 12-12v-30c0-6.627 5.373-12 12-12 6.628 0 12 5.373 12 12V70zm-96-205c0 6.627-5.372 12-12 12-6.627 0-12-5.373-12-12v-73c0-6.627 5.373-12 12-12 6.628 0 12 5.373 12 12v73zm0 287c0 6.627-5.372 12-12 12-6.627 0-12-5.373-12-12V79c0-6.627 5.373-12 12-12 6.628 0 12 5.373 12 12v73zm-12 264c6.628 0 12-5.373 12-12V238c0-6.627-5.372-12-12-12-6.627 0-12 5.373-12 12v166c0 6.627 5.373 12 12 12zm84-190c0 6.627-5.372 12-12 12-6.627 0-12-5.373-12-12v-9c0-6.627-5.372-12-12-12-6.627 0-12 5.373-12 12v257c0 6.627 5.373 12 12 12 6.628 0 12-5.373 12-12V274h.01c.262-6.395 5.53-11.5 11.99-11.5s11.728 5.105 11.99 11.5h.01v24c0 6.627 5.373 12 12 12 6.628 0 12-5.373 12-12V142c0-6.627-5.372-12-12-12-6.627 0-12 5.373-12 12v84zm12 298c6.628 0 12-5.373 12-12V356c0-6.627-5.372-12-12-12-6.627 0-12 5.373-12 12v156c0 6.627 5.373 12 12 12z" fill="#49CBC2"/></g><mask id="b" maskUnits="userSpaceOnUse" x="0" y="0" width="458" height="458"><circle cx="229" cy="229" r="229" fill="#fff"/></mask><g mask="url(#b)"><path fill-rule="evenodd" clip-rule="evenodd" d="M181.12-220c0 6.627 5.373 12 12 12 6.628 0 12-5.373 12-12v-156c0-6.627-5.372-12-12-12-6.627 0-12 5.373-12 12v156zm0 220c0 6.627 5.373 12 12 12 6.628 0 12-5.373 12-12v-78h.01c.262-6.395 5.53-11.5 11.99-11.5s11.728 5.105 11.99 11.5h.01V82c0 6.627 5.373 12 12 12 6.628 0 12-5.373 12-12v-257c0-6.627-5.372-12-12-12-6.627 0-12 5.373-12 12v49c0 6.627-5.372 12-12 12-6.627 0-12-5.373-12-12v-30c0-6.627-5.372-12-12-12-6.627 0-12 5.373-12 12V0zm96-205c0 6.627 5.373 12 12 12 6.628 0 12-5.373 12-12v-73c0-6.627-5.372-12-12-12-6.627 0-12 5.373-12 12v73zm0 287c0 6.627 5.373 12 12 12 6.628 0 12-5.373 12-12V9c0-6.627-5.372-12-12-12-6.627 0-12 5.373-12 12v73zm12 264c-6.627 0-12-5.373-12-12V168c0-6.627 5.373-12 12-12 6.628 0 12 5.373 12 12v166c0 6.627-5.372 12-12 12zm-84-190c0 6.627 5.373 12 12 12 6.628 0 12-5.373 12-12v-9c0-6.627 5.373-12 12-12 6.628 0 12 5.373 12 12v257c0 6.627-5.372 12-12 12-6.627 0-12-5.373-12-12V204h-.01c-.262-6.395-5.53-11.5-11.99-11.5s-11.728 5.105-11.99 11.5h-.01v24c0 6.627-5.372 12-12 12-6.627 0-12-5.373-12-12V72c0-6.627 5.373-12 12-12 6.628 0 12 5.373 12 12v84zm-12 298c-6.627 0-12-5.373-12-12V286c0-6.627 5.373-12 12-12 6.628 0 12 5.373 12 12v156c0 6.627-5.372 12-12 12z" fill="#50DECD"/></g><mask id="c" maskUnits="userSpaceOnUse" x="0" y="0" width="458" height="458"><circle cx="229" cy="229" r="229" fill="#fff"/></mask><g mask="url(#c)"><path fill-rule="evenodd" clip-rule="evenodd" d="M157.12-253c0 6.627-5.372 12-12 12-6.627 0-12-5.373-12-12v-156c0-6.627 5.373-12 12-12 6.628 0 12 5.373 12 12v156zm0 220c0 6.627-5.372 12-12 12-6.627 0-12-5.373-12-12v-78h-.01c-.262-6.395-5.53-11.5-11.99-11.5s-11.728 5.105-11.99 11.5h-.01V49c0 6.627-5.372 12-12 12-6.627 0-12-5.373-12-12v-257c0-6.627 5.373-12 12-12 6.628 0 12 5.373 12 12v49c0 6.627 5.373 12 12 12 6.628 0 12-5.373 12-12v-30c0-6.627 5.373-12 12-12 6.628 0 12 5.373 12 12v156zm-96-205c0 6.627-5.372 12-12 12-6.627 0-12-5.373-12-12v-73c0-6.627 5.373-12 12-12 6.628 0 12 5.373 12 12v73zm0 287c0 6.627-5.372 12-12 12-6.627 0-12-5.373-12-12v-73c0-6.627 5.373-12 12-12 6.628 0 12 5.373 12 12v73zm-12 264c6.628 0 12-5.373 12-12V135c0-6.627-5.372-12-12-12-6.627 0-12 5.373-12 12v166c0 6.627 5.373 12 12 12zm84-190c0 6.627-5.372 12-12 12-6.627 0-12-5.373-12-12v-9c0-6.627-5.372-12-12-12-6.627 0-12 5.373-12 12v257c0 6.627 5.373 12 12 12 6.628 0 12-5.373 12-12V171h.01c.262-6.395 5.53-11.5 11.99-11.5s11.728 5.105 11.99 11.5h.01v24c0 6.627 5.373 12 12 12 6.628 0 12-5.373 12-12V39c0-6.627-5.372-12-12-12-6.627 0-12 5.373-12 12v84zm12 298c6.628 0 12-5.373 12-12V253c0-6.627-5.372-12-12-12-6.627 0-12 5.373-12 12v156c0 6.627 5.373 12 12 12z" fill="#77FFF5"/></g><mask id="d" maskUnits="userSpaceOnUse" x="0" y="0" width="458" height="458"><circle cx="229" cy="229" r="229" fill="#fff"/></mask><g mask="url(#d)"><path opacity=".078" fill="#000" d="M229 0h229v458H229z"/></g><path fill-rule="evenodd" clip-rule="evenodd" d="M229 450c122.055 0 221-98.945 221-221S351.055 8 229 8v442z" fill="#138B83"/><mask id="e" maskUnits="userSpaceOnUse" x="229" y="8" width="221" height="442"><path fill-rule="evenodd" clip-rule="evenodd" d="M229 450c122.055 0 221-98.945 221-221S351.055 8 229 8v442z" fill="#fff"/></mask><g mask="url(#e)"><circle cx="230" cy="229" r="145" fill="#1BB9AE"/><circle cx="228.5" cy="229.5" r="32.5" fill="#06504C"/></g></svg>