<svg width="24" height="18" viewBox="0 0 24 18" fill="none" xmlns="http://www.w3.org/2000/svg">
<path fill-rule="evenodd" clip-rule="evenodd" d="M0.333008 8.99995C0.333008 8.35565 0.855348 7.83325 1.49967 7.83325H22.4997C23.144 7.83325 23.6664 8.35565 23.6664 8.99995C23.6664 9.64435 23.144 10.1667 22.4997 10.1667H1.49967C0.855348 10.1667 0.333008 9.64435 0.333008 8.99995Z" fill="#3EBDF2"/>
<path fill-rule="evenodd" clip-rule="evenodd" d="M14.6747 1.17496C15.1302 0.719349 15.869 0.719349 16.3246 1.17496L23.3246 8.17501C23.7801 8.63051 23.7801 9.36931 23.3246 9.82491L16.3246 16.8249C15.869 17.2804 15.1302 17.2804 14.6747 16.8249C14.2191 16.3693 14.2191 15.6305 14.6747 15.175L20.8497 8.99991L14.6747 2.82488C14.2191 2.36926 14.2191 1.63058 14.6747 1.17496Z" fill="#DD2F6C"/>
</svg>
