<svg width="126" height="126" viewBox="0 0 126 126" fill="none" xmlns="http://www.w3.org/2000/svg">
<circle cx="8" cy="8" r="8" fill="#6A6D9E" fill-opacity="0.1"/>
<circle cx="30" cy="8" r="8" fill="#6A6D9E" fill-opacity="0.1"/>
<circle cx="52" cy="8" r="8" fill="#6A6D9E" fill-opacity="0.1"/>
<circle cx="74" cy="8" r="8" fill="#6A6D9E" fill-opacity="0.1"/>
<circle cx="96" cy="8" r="8" fill="#6A6D9E" fill-opacity="0.1"/>
<circle cx="118" cy="8" r="8" fill="#6A6D9E" fill-opacity="0.1"/>
<circle cx="8" cy="30" r="8" fill="#6A6D9E" fill-opacity="0.1"/>
<circle cx="30" cy="30" r="8" fill="#6A6D9E" fill-opacity="0.1"/>
<circle cx="52" cy="30" r="8" fill="#6A6D9E" fill-opacity="0.1"/>
<circle cx="74" cy="30" r="8" fill="#6A6D9E" fill-opacity="0.1"/>
<circle cx="96" cy="30" r="8" fill="#6A6D9E" fill-opacity="0.1"/>
<circle cx="118" cy="30" r="8" fill="#6A6D9E" fill-opacity="0.1"/>
<circle cx="8" cy="52" r="8" fill="#6A6D9E" fill-opacity="0.1"/>
<circle cx="30" cy="52" r="8" fill="#6A6D9E" fill-opacity="0.1"/>
<circle cx="52" cy="52" r="8" fill="#6A6D9E" fill-opacity="0.1"/>
<circle cx="74" cy="52" r="8" fill="#6A6D9E" fill-opacity="0.1"/>
<circle cx="96" cy="52" r="8" fill="#6A6D9E" fill-opacity="0.1"/>
<circle cx="118" cy="52" r="8" fill="#6A6D9E" fill-opacity="0.1"/>
<circle cx="8" cy="74" r="8" fill="#6A6D9E" fill-opacity="0.1"/>
<circle cx="30" cy="74" r="8" fill="#6A6D9E" fill-opacity="0.1"/>
<circle cx="52" cy="74" r="8" fill="#6A6D9E" fill-opacity="0.1"/>
<circle cx="74" cy="74" r="8" fill="#6A6D9E" fill-opacity="0.1"/>
<circle cx="96" cy="74" r="8" fill="#6A6D9E" fill-opacity="0.1"/>
<circle cx="118" cy="74" r="8" fill="#6A6D9E" fill-opacity="0.1"/>
<circle cx="8" cy="96" r="8" fill="#6A6D9E" fill-opacity="0.1"/>
<circle cx="30" cy="96" r="8" fill="#6A6D9E" fill-opacity="0.1"/>
<circle cx="52" cy="96" r="8" fill="#6A6D9E" fill-opacity="0.1"/>
<circle cx="74" cy="96" r="8" fill="#6A6D9E" fill-opacity="0.1"/>
<circle cx="96" cy="96" r="8" fill="#6A6D9E" fill-opacity="0.1"/>
<circle cx="118" cy="96" r="8" fill="#6A6D9E" fill-opacity="0.1"/>
<circle cx="8" cy="118" r="8" fill="#6A6D9E" fill-opacity="0.1"/>
<circle cx="30" cy="118" r="8" fill="#6A6D9E" fill-opacity="0.1"/>
<circle cx="52" cy="118" r="8" fill="#6A6D9E" fill-opacity="0.1"/>
<circle cx="74" cy="118" r="8" fill="#6A6D9E" fill-opacity="0.1"/>
<circle cx="96" cy="118" r="8" fill="#6A6D9E" fill-opacity="0.1"/>
<circle cx="118" cy="118" r="8" fill="#6A6D9E" fill-opacity="0.1"/>
</svg>
