<svg width="466" height="246" viewBox="0 0 466 246" fill="none" xmlns="http://www.w3.org/2000/svg">
<rect x="0.25" y="0.25" width="465.5" height="245.5" rx="49.75" fill="white" stroke="#CAD6F1" stroke-width="0.5"/>
<path d="M65.3135 189.758L67.6875 196.461L70.0488 189.758H72.5498V199H70.6392V196.474L70.8296 192.113L68.335 199H67.0273L64.5391 192.119L64.7295 196.474V199H62.8252V189.758H65.3135ZM81.8047 194.588C81.8047 195.498 81.6439 196.296 81.3223 196.981C81.0007 197.667 80.5394 198.196 79.9385 198.568C79.3418 198.941 78.6562 199.127 77.8818 199.127C77.1159 199.127 76.4325 198.943 75.8315 198.575C75.2306 198.207 74.7651 197.682 74.4351 197C74.105 196.315 73.9378 195.528 73.9336 194.639V194.182C73.9336 193.272 74.0965 192.472 74.4224 191.783C74.7524 191.089 75.2158 190.558 75.8125 190.189C76.4134 189.817 77.099 189.631 77.8691 189.631C78.6393 189.631 79.3228 189.817 79.9194 190.189C80.5203 190.558 80.9837 191.089 81.3096 191.783C81.6396 192.472 81.8047 193.27 81.8047 194.176V194.588ZM79.875 194.169C79.875 193.2 79.7015 192.464 79.3545 191.96C79.0075 191.457 78.5124 191.205 77.8691 191.205C77.2301 191.205 76.7371 191.455 76.3901 191.954C76.0431 192.449 75.8675 193.177 75.8633 194.138V194.588C75.8633 195.532 76.0368 196.264 76.3838 196.785C76.7308 197.305 77.2301 197.565 77.8818 197.565C78.5208 197.565 79.0117 197.316 79.3545 196.816C79.6973 196.313 79.8708 195.581 79.875 194.62V194.169ZM90.7041 199H88.7998L85.0928 192.919V199H83.1885V189.758H85.0928L88.8062 195.852V189.758H90.7041V199Z" fill="#6A6D9E"/>
<rect x="61" y="41" width="14" height="134" rx="7" fill="#554DDE"/>
<rect x="79" y="92" width="14" height="83" rx="7" fill="#F44E77"/>
<path d="M124.782 191.3H121.951V199H120.047V191.3H117.254V189.758H124.782V191.3ZM132.869 189.758V195.845C132.869 196.857 132.552 197.656 131.917 198.245C131.286 198.833 130.423 199.127 129.327 199.127C128.248 199.127 127.391 198.841 126.756 198.27C126.122 197.699 125.798 196.914 125.785 195.915V189.758H127.689V195.858C127.689 196.463 127.833 196.905 128.121 197.185C128.413 197.46 128.815 197.597 129.327 197.597C130.398 197.597 130.942 197.034 130.958 195.909V189.758H132.869ZM139.991 194.995H136.335V197.47H140.626V199H134.431V189.758H140.613V191.3H136.335V193.503H139.991V194.995Z" fill="#6A6D9E"/>
<rect x="113" y="77" width="14" height="98" rx="7" fill="#554DDE"/>
<rect x="131" y="135" width="14" height="40" rx="7" fill="#F44E77"/>
<path d="M175.023 196.334L176.268 189.758H178.166L176.115 199H174.198L172.694 192.817L171.189 199H169.272L167.222 189.758H169.12L170.371 196.321L171.894 189.758H173.506L175.023 196.334ZM184.761 194.995H181.104V197.47H185.396V199H179.2V189.758H185.383V191.3H181.104V193.503H184.761V194.995ZM186.513 199V189.758H189.356C190.169 189.758 190.895 189.942 191.534 190.31C192.177 190.674 192.678 191.194 193.038 191.872C193.398 192.544 193.578 193.31 193.578 194.169V194.595C193.578 195.454 193.4 196.218 193.044 196.886C192.693 197.555 192.196 198.073 191.553 198.441C190.91 198.81 190.184 198.996 189.375 199H186.513ZM188.417 191.3V197.47H189.337C190.082 197.47 190.651 197.227 191.045 196.74C191.438 196.254 191.639 195.557 191.648 194.652V194.163C191.648 193.224 191.453 192.513 191.064 192.03C190.675 191.544 190.105 191.3 189.356 191.3H188.417Z" fill="#6A6D9E"/>
<rect x="165" y="55" width="14" height="120" rx="7" fill="#554DDE"/>
<rect x="183" y="101" width="14" height="74" rx="7" fill="#F44E77"/>
<path d="M227.782 191.3H224.951V199H223.047V191.3H220.254V189.758H227.782V191.3ZM236.396 199H234.492V195.039H230.778V199H228.874V189.758H230.778V193.503H234.492V189.758H236.396V199ZM245.061 189.758V195.845C245.061 196.857 244.743 197.656 244.108 198.245C243.478 198.833 242.615 199.127 241.519 199.127C240.439 199.127 239.583 198.841 238.948 198.27C238.313 197.699 237.989 196.914 237.977 195.915V189.758H239.881V195.858C239.881 196.463 240.025 196.905 240.312 197.185C240.604 197.46 241.007 197.597 241.519 197.597C242.589 197.597 243.133 197.034 243.15 195.909V189.758H245.061Z" fill="#6A6D9E"/>
<rect x="217" y="77" width="14" height="98" rx="7" fill="#554DDE"/>
<rect x="235" y="118" width="14" height="57" rx="7" fill="#F44E77"/>
<path d="M281.386 195.223H277.729V199H275.825V189.758H281.843V191.3H277.729V193.687H281.386V195.223ZM286.369 195.617H284.852V199H282.947V189.758H286.381C287.473 189.758 288.315 190.001 288.908 190.488C289.5 190.974 289.796 191.662 289.796 192.551C289.796 193.181 289.659 193.708 289.384 194.131C289.113 194.55 288.7 194.885 288.146 195.134L290.146 198.911V199H288.102L286.369 195.617ZM284.852 194.074H286.388C286.866 194.074 287.236 193.954 287.499 193.712C287.761 193.467 287.892 193.131 287.892 192.703C287.892 192.267 287.767 191.924 287.518 191.675C287.272 191.425 286.893 191.3 286.381 191.3H284.852V194.074ZM293.275 199H291.371V189.758H293.275V199Z" fill="#6A6D9E"/>
<rect x="269" y="101" width="14" height="74" rx="7" fill="#554DDE"/>
<rect x="287" y="142" width="14" height="33" rx="7" fill="#F44E77"/>
<path d="M329.618 196.575C329.618 196.215 329.491 195.94 329.237 195.75C328.983 195.555 328.526 195.352 327.866 195.141C327.206 194.925 326.683 194.713 326.298 194.506C325.248 193.939 324.724 193.175 324.724 192.214C324.724 191.715 324.863 191.271 325.143 190.881C325.426 190.488 325.83 190.181 326.355 189.961C326.884 189.741 327.476 189.631 328.132 189.631C328.792 189.631 329.381 189.751 329.897 189.993C330.413 190.23 330.813 190.566 331.097 191.002C331.384 191.438 331.528 191.933 331.528 192.487H329.624C329.624 192.064 329.491 191.736 329.224 191.503C328.958 191.266 328.583 191.148 328.101 191.148C327.635 191.148 327.273 191.247 327.015 191.446C326.757 191.641 326.628 191.899 326.628 192.221C326.628 192.521 326.778 192.773 327.079 192.976C327.383 193.179 327.83 193.37 328.418 193.547C329.501 193.873 330.291 194.277 330.786 194.76C331.281 195.242 331.528 195.843 331.528 196.562C331.528 197.362 331.226 197.991 330.621 198.448C330.015 198.901 329.201 199.127 328.177 199.127C327.466 199.127 326.818 198.998 326.234 198.74C325.65 198.477 325.204 198.12 324.895 197.667C324.59 197.214 324.438 196.689 324.438 196.093H326.349C326.349 197.113 326.958 197.623 328.177 197.623C328.63 197.623 328.983 197.532 329.237 197.35C329.491 197.163 329.618 196.905 329.618 196.575ZM338.041 197.096H334.702L334.067 199H332.042L335.483 189.758H337.248L340.707 199H338.682L338.041 197.096ZM335.216 195.553H337.527L336.365 192.094L335.216 195.553ZM347.766 191.3H344.935V199H343.03V191.3H340.237V189.758H347.766V191.3Z" fill="#6A6D9E"/>
<rect x="321" y="77" width="14" height="98" rx="7" fill="#554DDE"/>
<rect x="339" y="123" width="14" height="52" rx="7" fill="#F44E77"/>
<path d="M381.618 196.575C381.618 196.215 381.491 195.94 381.237 195.75C380.983 195.555 380.526 195.352 379.866 195.141C379.206 194.925 378.683 194.713 378.298 194.506C377.248 193.939 376.724 193.175 376.724 192.214C376.724 191.715 376.863 191.271 377.143 190.881C377.426 190.488 377.83 190.181 378.355 189.961C378.884 189.741 379.476 189.631 380.132 189.631C380.792 189.631 381.381 189.751 381.897 189.993C382.413 190.23 382.813 190.566 383.097 191.002C383.384 191.438 383.528 191.933 383.528 192.487H381.624C381.624 192.064 381.491 191.736 381.224 191.503C380.958 191.266 380.583 191.148 380.101 191.148C379.635 191.148 379.273 191.247 379.015 191.446C378.757 191.641 378.628 191.899 378.628 192.221C378.628 192.521 378.778 192.773 379.079 192.976C379.383 193.179 379.83 193.37 380.418 193.547C381.501 193.873 382.291 194.277 382.786 194.76C383.281 195.242 383.528 195.843 383.528 196.562C383.528 197.362 383.226 197.991 382.621 198.448C382.015 198.901 381.201 199.127 380.177 199.127C379.466 199.127 378.818 198.998 378.234 198.74C377.65 198.477 377.204 198.12 376.895 197.667C376.59 197.214 376.438 196.689 376.438 196.093H378.349C378.349 197.113 378.958 197.623 380.177 197.623C380.63 197.623 380.983 197.532 381.237 197.35C381.491 197.163 381.618 196.905 381.618 196.575ZM391.818 189.758V195.845C391.818 196.857 391.501 197.656 390.866 198.245C390.236 198.833 389.372 199.127 388.276 199.127C387.197 199.127 386.34 198.841 385.706 198.27C385.071 197.699 384.747 196.914 384.734 195.915V189.758H386.639V195.858C386.639 196.463 386.783 196.905 387.07 197.185C387.362 197.46 387.764 197.597 388.276 197.597C389.347 197.597 389.891 197.034 389.908 195.909V189.758H391.818ZM400.896 199H398.991L395.284 192.919V199H393.38V189.758H395.284L398.998 195.852V189.758H400.896V199Z" fill="#6A6D9E"/>
<rect x="373" y="50" width="14" height="125" rx="7" fill="#554DDE"/>
<rect x="391" y="88" width="14" height="87" rx="7" fill="#F44E77"/>
</svg>
