<svg width="466" height="268" viewBox="0 0 466 268" fill="none" xmlns="http://www.w3.org/2000/svg">
<rect width="466" height="268" rx="24" fill="#16194F"/>
<mask id="mask0" mask-type="alpha" maskUnits="userSpaceOnUse" x="0" y="0" width="466" height="268">
<rect width="466" height="268" rx="24" fill="#16194F"/>
</mask>
<g mask="url(#mask0)">
<path d="M360.56 -55.2031C383.194 -77.7577 419.806 -77.7577 442.44 -55.2031L456.03 -41.6613C465.288 -32.4358 477.39 -26.6076 490.375 -25.1215L509.435 -22.94C541.181 -19.3067 564.009 9.31826 560.487 41.0767L558.372 60.1446C556.932 73.1347 559.921 86.2305 566.855 97.3091L577.033 113.571C593.986 140.656 585.839 176.351 558.813 193.399L542.587 203.634C531.533 210.607 523.158 221.109 518.819 233.438L512.451 251.535C501.845 281.676 468.858 297.562 438.679 287.062L420.56 280.757C408.216 276.462 394.784 276.462 382.44 280.757L364.32 287.062C334.142 297.562 301.155 281.676 290.549 251.535L284.181 233.438C279.842 221.109 271.467 210.607 260.413 203.634L244.187 193.399C217.161 176.351 209.014 140.657 225.967 113.571L236.145 97.3092C243.079 86.2305 246.068 73.1347 244.628 60.1446L242.513 41.0767C238.991 9.31831 261.819 -19.3067 293.565 -22.94L312.625 -25.1215C325.61 -26.6076 337.712 -32.4358 346.97 -41.6612L360.56 -55.2031Z" fill="#9A94FF"/>
<path d="M124.56 -161.203C147.194 -183.758 183.806 -183.758 206.44 -161.203L220.03 -147.661C229.288 -138.436 241.39 -132.608 254.375 -131.121L273.435 -128.94C305.181 -125.307 328.009 -96.6817 324.487 -64.9233L322.372 -45.8554C320.932 -32.8653 323.921 -19.7695 330.855 -8.69086L341.033 7.57124C357.986 34.6565 349.839 70.3513 322.813 87.3988L306.587 97.6342C295.533 104.607 287.158 115.109 282.819 127.438L276.451 145.535C265.845 175.676 232.858 191.562 202.679 181.062L184.56 174.757C172.216 170.462 158.784 170.462 146.44 174.757L128.32 181.062C98.142 191.562 65.1551 175.676 54.5488 145.535L48.1807 127.438C43.8424 115.109 35.4673 104.607 24.4131 97.6342L8.18682 87.3988C-18.8388 70.3513 -26.9859 34.6565 -10.0333 7.57127L0.145111 -8.69084C7.0792 -19.7695 10.0683 -32.8653 8.62769 -45.8554L6.51311 -64.9233C2.99119 -96.6817 25.8188 -125.307 57.5647 -128.94L76.6251 -131.121C89.6101 -132.608 101.712 -138.436 110.97 -147.661L124.56 -161.203Z" fill="#CAC7FF"/>
<path d="M136.559 115.777C162.51 89.9161 204.49 89.9161 230.441 115.777L246.022 131.303C256.637 141.881 270.513 148.563 285.401 150.267L307.256 152.769C343.655 156.934 369.828 189.755 365.79 226.168L363.365 248.031C361.714 262.925 365.141 277.94 373.091 290.643L384.762 309.289C404.199 340.344 394.858 381.27 363.871 400.817L345.266 412.552C332.592 420.547 322.989 432.589 318.015 446.724L310.714 467.474C298.553 502.033 260.731 520.247 226.129 508.208L205.354 500.979C191.201 496.054 175.799 496.054 161.646 500.979L140.871 508.208C106.269 520.247 68.4474 502.033 56.2865 467.474L48.985 446.724C44.0108 432.589 34.4082 420.547 21.7337 412.552L3.12906 400.817C-27.8577 381.27 -37.199 340.344 -17.7616 309.289L-6.09129 290.643C1.85913 277.94 5.28629 262.925 3.63457 248.031L1.21006 226.168C-2.82807 189.755 23.3455 156.934 59.7444 152.769L81.5985 150.267C96.4867 148.563 110.363 141.881 120.978 131.303L136.559 115.777Z" fill="#16194F"/>
<mask id="mask1" mask-type="alpha" maskUnits="userSpaceOnUse" x="-19" y="-179" width="369" height="364">
<path d="M124.56 -161.203C147.194 -183.758 183.806 -183.758 206.44 -161.203L220.03 -147.661C229.288 -138.436 241.39 -132.608 254.375 -131.121L273.435 -128.94C305.181 -125.307 328.009 -96.6817 324.487 -64.9233L322.372 -45.8554C320.932 -32.8653 323.921 -19.7695 330.855 -8.69086L341.033 7.57124C357.986 34.6565 349.839 70.3513 322.813 87.3988L306.587 97.6342C295.533 104.607 287.158 115.109 282.819 127.438L276.451 145.535C265.845 175.676 232.858 191.562 202.679 181.062L184.56 174.757C172.216 170.462 158.784 170.462 146.44 174.757L128.32 181.062C98.142 191.562 65.1551 175.676 54.5488 145.535L48.1807 127.438C43.8424 115.109 35.4673 104.607 24.4131 97.6342L8.18682 87.3988C-18.8388 70.3513 -26.9859 34.6565 -10.0333 7.57127L0.145111 -8.69084C7.0792 -19.7695 10.0683 -32.8653 8.62769 -45.8554L6.51311 -64.9233C2.99119 -96.6817 25.8188 -125.307 57.5647 -128.94L76.6251 -131.121C89.6101 -132.608 101.712 -138.436 110.97 -147.661L124.56 -161.203Z" fill="#CAC7FF"/>
</mask>
<g mask="url(#mask1)">
<path d="M136.559 115.777C162.51 89.9161 204.49 89.9161 230.441 115.777L246.022 131.303C256.637 141.881 270.513 148.563 285.401 150.267L307.256 152.769C343.655 156.934 369.828 189.755 365.79 226.168L363.365 248.031C361.714 262.925 365.141 277.94 373.091 290.643L384.762 309.289C404.199 340.344 394.858 381.27 363.871 400.817L345.266 412.552C332.592 420.547 322.989 432.589 318.015 446.724L310.714 467.474C298.553 502.033 260.731 520.247 226.129 508.208L205.354 500.979C191.201 496.054 175.799 496.054 161.646 500.979L140.871 508.208C106.269 520.247 68.4474 502.033 56.2865 467.474L48.985 446.724C44.0108 432.589 34.4082 420.547 21.7337 412.552L3.12906 400.817C-27.8577 381.27 -37.199 340.344 -17.7616 309.289L-6.09129 290.643C1.85913 277.94 5.28629 262.925 3.63457 248.031L1.21006 226.168C-2.82807 189.755 23.3455 156.934 59.7444 152.769L81.5985 150.267C96.4867 148.563 110.363 141.881 120.978 131.303L136.559 115.777Z" fill="#F44E77"/>
</g>
</g>
<path d="M45.0391 63.1758H52.5039V66H41.5234V48.9375H45.0391V63.1758ZM53.7812 59.543C53.7812 58.2852 54.0234 57.1641 54.5078 56.1797C54.9922 55.1953 55.6875 54.4336 56.5938 53.8945C57.5078 53.3555 58.5664 53.0859 59.7695 53.0859C61.4805 53.0859 62.875 53.6094 63.9531 54.6562C65.0391 55.7031 65.6445 57.125 65.7695 58.9219L65.793 59.7891C65.793 61.7344 65.25 63.2969 64.1641 64.4766C63.0781 65.6484 61.6211 66.2344 59.793 66.2344C57.9648 66.2344 56.5039 65.6484 55.4102 64.4766C54.3242 63.3047 53.7812 61.7109 53.7812 59.6953V59.543ZM57.168 59.7891C57.168 60.9922 57.3945 61.9141 57.8477 62.5547C58.3008 63.1875 58.9492 63.5039 59.793 63.5039C60.6133 63.5039 61.2539 63.1914 61.7148 62.5664C62.1758 61.9336 62.4062 60.9258 62.4062 59.543C62.4062 58.3633 62.1758 57.4492 61.7148 56.8008C61.2539 56.1523 60.6055 55.8281 59.7695 55.8281C58.9414 55.8281 58.3008 56.1523 57.8477 56.8008C57.3945 57.4414 57.168 58.4375 57.168 59.7891ZM75.0039 56.4961C74.543 56.4336 74.1367 56.4023 73.7852 56.4023C72.5039 56.4023 71.6641 56.8359 71.2656 57.7031V66H67.8789V53.3203H71.0781L71.1719 54.832C71.8516 53.668 72.793 53.0859 73.9961 53.0859C74.3711 53.0859 74.7227 53.1367 75.0508 53.2383L75.0039 56.4961ZM82.2461 66.2344C80.3867 66.2344 78.8711 65.6641 77.6992 64.5234C76.5352 63.3828 75.9531 61.8633 75.9531 59.9648V59.6367C75.9531 58.3633 76.1992 57.2266 76.6914 56.2266C77.1836 55.2188 77.8789 54.4453 78.7773 53.9062C79.6836 53.3594 80.7148 53.0859 81.8711 53.0859C83.6055 53.0859 84.9688 53.6328 85.9609 54.7266C86.9609 55.8203 87.4609 57.3711 87.4609 59.3789V60.7617H79.3867C79.4961 61.5898 79.8242 62.2539 80.3711 62.7539C80.9258 63.2539 81.625 63.5039 82.4688 63.5039C83.7734 63.5039 84.793 63.0312 85.5273 62.0859L87.1914 63.9492C86.6836 64.668 85.9961 65.2305 85.1289 65.6367C84.2617 66.0352 83.3008 66.2344 82.2461 66.2344ZM81.8594 55.8281C81.1875 55.8281 80.6406 56.0547 80.2188 56.5078C79.8047 56.9609 79.5391 57.6094 79.4219 58.4531H84.1328V58.1836C84.1172 57.4336 83.9141 56.8555 83.5234 56.4492C83.1328 56.0352 82.5781 55.8281 81.8594 55.8281ZM92.5703 53.3203L92.6758 54.7383C93.5742 53.6367 94.7891 53.0859 96.3203 53.0859C97.9531 53.0859 99.0742 53.7305 99.6836 55.0195C100.574 53.7305 101.844 53.0859 103.492 53.0859C104.867 53.0859 105.891 53.4883 106.562 54.293C107.234 55.0898 107.57 56.293 107.57 57.9023V66H104.172V57.9141C104.172 57.1953 104.031 56.6719 103.75 56.3438C103.469 56.0078 102.973 55.8398 102.262 55.8398C101.246 55.8398 100.543 56.3242 100.152 57.293L100.164 66H96.7773V57.9258C96.7773 57.1914 96.6328 56.6602 96.3438 56.332C96.0547 56.0039 95.5625 55.8398 94.8672 55.8398C93.9062 55.8398 93.2109 56.2383 92.7812 57.0352V66H89.3945V53.3203H92.5703ZM120.121 66H116.605V48.9375H120.121V66ZM130.035 62.4961C130.035 62.082 129.828 61.7578 129.414 61.5234C129.008 61.2812 128.352 61.0664 127.445 60.8789C124.43 60.2461 122.922 58.9648 122.922 57.0352C122.922 55.9102 123.387 54.9727 124.316 54.2227C125.254 53.4648 126.477 53.0859 127.984 53.0859C129.594 53.0859 130.879 53.4648 131.84 54.2227C132.809 54.9805 133.293 55.9648 133.293 57.1758H129.906C129.906 56.6914 129.75 56.293 129.438 55.9805C129.125 55.6602 128.637 55.5 127.973 55.5C127.402 55.5 126.961 55.6289 126.648 55.8867C126.336 56.1445 126.18 56.4727 126.18 56.8711C126.18 57.2461 126.355 57.5508 126.707 57.7852C127.066 58.0117 127.668 58.2109 128.512 58.3828C129.355 58.5469 130.066 58.7344 130.645 58.9453C132.434 59.6016 133.328 60.7383 133.328 62.3555C133.328 63.5117 132.832 64.4492 131.84 65.168C130.848 65.8789 129.566 66.2344 127.996 66.2344C126.934 66.2344 125.988 66.0469 125.16 65.6719C124.34 65.2891 123.695 64.7695 123.227 64.1133C122.758 63.4492 122.523 62.7344 122.523 61.9688H125.734C125.766 62.5703 125.988 63.0312 126.402 63.3516C126.816 63.6719 127.371 63.832 128.066 63.832C128.715 63.832 129.203 63.7109 129.531 63.4688C129.867 63.2188 130.035 62.8945 130.035 62.4961ZM143.113 64.7109C142.277 65.7266 141.121 66.2344 139.645 66.2344C138.285 66.2344 137.246 65.8438 136.527 65.0625C135.816 64.2812 135.453 63.1367 135.438 61.6289V53.3203H138.824V61.5117C138.824 62.832 139.426 63.4922 140.629 63.4922C141.777 63.4922 142.566 63.0938 142.996 62.2969V53.3203H146.395V66H143.207L143.113 64.7109ZM152.125 53.3203L152.23 54.7383C153.129 53.6367 154.344 53.0859 155.875 53.0859C157.508 53.0859 158.629 53.7305 159.238 55.0195C160.129 53.7305 161.398 53.0859 163.047 53.0859C164.422 53.0859 165.445 53.4883 166.117 54.293C166.789 55.0898 167.125 56.293 167.125 57.9023V66H163.727V57.9141C163.727 57.1953 163.586 56.6719 163.305 56.3438C163.023 56.0078 162.527 55.8398 161.816 55.8398C160.801 55.8398 160.098 56.3242 159.707 57.293L159.719 66H156.332V57.9258C156.332 57.1914 156.188 56.6602 155.898 56.332C155.609 56.0039 155.117 55.8398 154.422 55.8398C153.461 55.8398 152.766 56.2383 152.336 57.0352V66H148.949V53.3203H152.125Z" fill="white"/>
<path d="M50.0977 213.936C50.0977 216.051 49.7363 217.624 49.0137 218.652C48.291 219.681 47.1615 220.195 45.625 220.195C44.1081 220.195 42.985 219.694 42.2559 218.691C41.5267 217.682 41.1491 216.178 41.123 214.18V211.768C41.123 209.678 41.4844 208.125 42.207 207.109C42.9297 206.094 44.0625 205.586 45.6055 205.586C47.1354 205.586 48.2617 206.077 48.9844 207.061C49.707 208.037 50.0781 209.548 50.0977 211.592V213.936ZM48.291 211.465C48.291 209.935 48.0762 208.822 47.6465 208.125C47.2168 207.422 46.5365 207.07 45.6055 207.07C44.681 207.07 44.0072 207.419 43.584 208.115C43.1608 208.812 42.9427 209.883 42.9297 211.328V214.219C42.9297 215.755 43.151 216.891 43.5938 217.627C44.043 218.356 44.7201 218.721 45.625 218.721C46.5169 218.721 47.1777 218.376 47.6074 217.686C48.0436 216.995 48.2715 215.908 48.291 214.424V211.465ZM61.3281 213.936C61.3281 216.051 60.9668 217.624 60.2441 218.652C59.5215 219.681 58.3919 220.195 56.8555 220.195C55.3385 220.195 54.2155 219.694 53.4863 218.691C52.7572 217.682 52.3796 216.178 52.3535 214.18V211.768C52.3535 209.678 52.7148 208.125 53.4375 207.109C54.1602 206.094 55.293 205.586 56.8359 205.586C58.3659 205.586 59.4922 206.077 60.2148 207.061C60.9375 208.037 61.3086 209.548 61.3281 211.592V213.936ZM59.5215 211.465C59.5215 209.935 59.3066 208.822 58.877 208.125C58.4473 207.422 57.7669 207.07 56.8359 207.07C55.9115 207.07 55.2376 207.419 54.8145 208.115C54.3913 208.812 54.1732 209.883 54.1602 211.328V214.219C54.1602 215.755 54.3815 216.891 54.8242 217.627C55.2734 218.356 55.9505 218.721 56.8555 218.721C57.7474 218.721 58.4082 218.376 58.8379 217.686C59.2741 216.995 59.502 215.908 59.5215 214.424V211.465ZM71.2695 215.225H73.2422V216.699H71.2695V220H69.4531V216.699H62.9785V215.635L69.3457 205.781H71.2695V215.225ZM65.0293 215.225H69.4531V208.252L69.2383 208.643L65.0293 215.225ZM75.7031 212.871L76.4258 205.781H83.7109V207.451H77.959L77.5293 211.328C78.2259 210.918 79.0169 210.713 79.9023 210.713C81.1979 210.713 82.2266 211.143 82.9883 212.002C83.75 212.855 84.1309 214.01 84.1309 215.469C84.1309 216.934 83.7337 218.089 82.9395 218.936C82.1517 219.775 81.0482 220.195 79.6289 220.195C78.3724 220.195 77.347 219.847 76.5527 219.15C75.7585 218.454 75.306 217.49 75.1953 216.26H76.9043C77.015 217.074 77.3047 217.689 77.7734 218.105C78.2422 218.516 78.8607 218.721 79.6289 218.721C80.4688 218.721 81.1263 218.434 81.6016 217.861C82.0833 217.288 82.3242 216.497 82.3242 215.488C82.3242 214.538 82.0638 213.776 81.543 213.203C81.0286 212.624 80.3418 212.334 79.4824 212.334C78.6947 212.334 78.0762 212.507 77.627 212.852L77.1484 213.242L75.7031 212.871ZM93.1055 210.4L90.1562 209.521L90.6055 208.047L93.5547 209.141L93.4668 205.781H94.9609L94.8633 209.189L97.7637 208.115L98.2129 209.6L95.2148 210.488L97.1484 213.135L95.9375 214.053L94.1211 211.24L92.3633 213.984L91.1426 213.096L93.1055 210.4ZM101.719 210.4L98.7695 209.521L99.2188 208.047L102.168 209.141L102.08 205.781H103.574L103.477 209.189L106.377 208.115L106.826 209.6L103.828 210.488L105.762 213.135L104.551 214.053L102.734 211.24L100.977 213.984L99.7559 213.096L101.719 210.4ZM110.332 210.4L107.383 209.521L107.832 208.047L110.781 209.141L110.693 205.781H112.188L112.09 209.189L114.99 208.115L115.439 209.6L112.441 210.488L114.375 213.135L113.164 214.053L111.348 211.24L109.59 213.984L108.369 213.096L110.332 210.4ZM118.945 210.4L115.996 209.521L116.445 208.047L119.395 209.141L119.307 205.781H120.801L120.703 209.189L123.604 208.115L124.053 209.6L121.055 210.488L122.988 213.135L121.777 214.053L119.961 211.24L118.203 213.984L116.982 213.096L118.945 210.4ZM132.52 210.4L129.57 209.521L130.02 208.047L132.969 209.141L132.881 205.781H134.375L134.277 209.189L137.178 208.115L137.627 209.6L134.629 210.488L136.562 213.135L135.352 214.053L133.535 211.24L131.777 213.984L130.557 213.096L132.52 210.4ZM141.133 210.4L138.184 209.521L138.633 208.047L141.582 209.141L141.494 205.781H142.988L142.891 209.189L145.791 208.115L146.24 209.6L143.242 210.488L145.176 213.135L143.965 214.053L142.148 211.24L140.391 213.984L139.17 213.096L141.133 210.4ZM149.746 210.4L146.797 209.521L147.246 208.047L150.195 209.141L150.107 205.781H151.602L151.504 209.189L154.404 208.115L154.854 209.6L151.855 210.488L153.789 213.135L152.578 214.053L150.762 211.24L149.004 213.984L147.783 213.096L149.746 210.4ZM158.359 210.4L155.41 209.521L155.859 208.047L158.809 209.141L158.721 205.781H160.215L160.117 209.189L163.018 208.115L163.467 209.6L160.469 210.488L162.402 213.135L161.191 214.053L159.375 211.24L157.617 213.984L156.396 213.096L158.359 210.4ZM179.209 220H169.893V218.701L174.814 213.232C175.544 212.406 176.045 211.735 176.318 211.221C176.598 210.7 176.738 210.163 176.738 209.609C176.738 208.867 176.514 208.258 176.064 207.783C175.615 207.308 175.016 207.07 174.268 207.07C173.369 207.07 172.669 207.327 172.168 207.842C171.673 208.35 171.426 209.059 171.426 209.971H169.619C169.619 208.662 170.039 207.604 170.879 206.797C171.725 205.99 172.855 205.586 174.268 205.586C175.589 205.586 176.634 205.934 177.402 206.631C178.171 207.321 178.555 208.242 178.555 209.395C178.555 210.794 177.663 212.461 175.879 214.395L172.07 218.525H179.209V220ZM181.953 212.871L182.676 205.781H189.961V207.451H184.209L183.779 211.328C184.476 210.918 185.267 210.713 186.152 210.713C187.448 210.713 188.477 211.143 189.238 212.002C190 212.855 190.381 214.01 190.381 215.469C190.381 216.934 189.984 218.089 189.189 218.936C188.402 219.775 187.298 220.195 185.879 220.195C184.622 220.195 183.597 219.847 182.803 219.15C182.008 218.454 181.556 217.49 181.445 216.26H183.154C183.265 217.074 183.555 217.689 184.023 218.105C184.492 218.516 185.111 218.721 185.879 218.721C186.719 218.721 187.376 218.434 187.852 217.861C188.333 217.288 188.574 216.497 188.574 215.488C188.574 214.538 188.314 213.776 187.793 213.203C187.279 212.624 186.592 212.334 185.732 212.334C184.945 212.334 184.326 212.507 183.877 212.852L183.398 213.242L181.953 212.871ZM201.533 206.797L195.645 220H193.75L199.619 207.266H191.924V205.781H201.533V206.797ZM210.674 205.771V207.305H210.342C208.936 207.331 207.816 207.747 206.982 208.555C206.149 209.362 205.667 210.498 205.537 211.963C206.286 211.104 207.308 210.674 208.604 210.674C209.84 210.674 210.827 211.11 211.562 211.982C212.305 212.855 212.676 213.981 212.676 215.361C212.676 216.826 212.275 217.998 211.475 218.877C210.68 219.756 209.613 220.195 208.271 220.195C206.911 220.195 205.807 219.674 204.961 218.633C204.115 217.585 203.691 216.237 203.691 214.59V213.896C203.691 211.279 204.248 209.281 205.361 207.9C206.481 206.514 208.145 205.804 210.352 205.771H210.674ZM208.301 212.178C207.682 212.178 207.113 212.363 206.592 212.734C206.071 213.105 205.71 213.571 205.508 214.131V214.795C205.508 215.967 205.771 216.911 206.299 217.627C206.826 218.343 207.484 218.701 208.271 218.701C209.085 218.701 209.723 218.402 210.186 217.803C210.654 217.204 210.889 216.419 210.889 215.449C210.889 214.473 210.651 213.685 210.176 213.086C209.707 212.48 209.082 212.178 208.301 212.178Z" fill="white"/>
<circle opacity="0.75" cx="408.5" cy="210.5" r="17.5" fill="white"/>
<circle cx="390.5" cy="210.5" r="17.5" fill="#F44E77"/>
</svg>
