<svg width="115" height="114" viewBox="0 0 115 114" fill="none" xmlns="http://www.w3.org/2000/svg">
<g filter="url(#filter0_f)">
<path d="M69.6499 34.2528C66.0515 29.9615 60.1058 27.7073 53.1054 28.6897C52.4229 28.7827 51.7508 28.9172 51.0891 29.0619L50.4893 29.2067L49.7448 29.3928L48.8659 29.672L48.597 29.7547C48.111 29.9202 47.6354 30.0856 47.1701 30.2717L46.8495 30.4165C46.5186 30.5509 46.1877 30.706 45.8155 30.8611C45.4432 31.0162 45.3295 31.0679 45.0813 31.192L44.7401 31.3781C44.4816 31.5022 44.2334 31.647 43.9749 31.7814C43.7164 31.9158 43.5406 32.0089 43.3235 32.1433C43.1063 32.2778 42.9926 32.3501 42.8168 32.4535L42.1653 32.8672L41.731 33.136L40.9555 33.7047L40.4488 34.0666L40.2627 34.2011C39.7871 34.563 39.3218 34.9456 38.8668 35.3385L38.6807 35.5039C38.2981 35.8452 37.9258 36.1864 37.5639 36.538L37.3571 36.7551L36.8504 37.2721C36.6643 37.479 36.4575 37.6754 36.2713 37.8822L35.9301 38.2855L35.3821 38.9369L34.9995 39.3919C34.8651 39.5573 34.7513 39.7331 34.6272 39.9089C34.5031 40.0847 34.2136 40.457 34.0275 40.7361C33.8414 41.0153 33.831 40.9843 33.738 41.1187C33.6449 41.2532 33.5518 41.4393 33.4588 41.5944C33.1899 42.008 32.9314 42.432 32.6936 42.8559C32.6005 43.011 32.4971 43.1558 32.4144 43.3109C32.3317 43.466 32.249 43.6625 32.1559 43.8279L31.8147 44.5207C31.6182 44.924 31.4424 45.3376 31.2666 45.7512C31.1839 45.9684 31.0805 46.1855 30.9978 46.4026L30.8944 46.6612C30.7083 47.1678 30.5428 47.6952 30.3877 48.2019C30.3877 48.2949 30.3877 48.388 30.3153 48.4914C30.1706 49.0188 30.0361 49.5254 29.9327 50.1045L29.8397 50.6112C29.7259 51.2419 29.6328 51.8727 29.5811 52.5138C29.5811 52.7516 29.5811 52.9895 29.5811 53.2169C29.5811 53.4444 29.5811 53.5995 29.5811 53.7856C29.5811 53.9718 29.5811 54.3337 29.5811 54.5922C29.5811 54.8507 29.5812 55.2023 29.6329 55.4918C29.6846 55.7813 29.6329 56.0192 29.6949 56.2777C29.6898 56.3672 29.6898 56.457 29.6949 56.5465C29.6949 56.9188 29.7983 57.291 29.8707 57.6529C29.8707 57.6529 29.8707 57.6529 29.8707 57.7046C29.9327 58.0355 30.0051 58.3561 30.0878 58.6766C30.0878 58.7594 30.1499 58.8421 30.1705 58.9351C30.2636 59.266 30.3774 59.5866 30.4911 59.9071C30.4911 60.0622 30.5842 60.2173 30.6359 60.3724C30.6592 60.433 30.6868 60.4917 30.7186 60.5482C30.8116 60.7964 30.9357 61.0342 31.0391 61.2721C31.1425 61.5099 31.1943 61.634 31.277 61.8098C31.3597 61.9855 31.3494 61.9235 31.3804 61.9752C31.484 62.1807 31.5979 62.3809 31.7216 62.5749C31.8147 62.7507 31.9077 62.9265 32.0215 63.1023C32.0594 63.1633 32.1008 63.222 32.1456 63.2781C32.2696 63.4642 32.3937 63.64 32.5281 63.8158C32.6626 63.9916 32.7349 64.126 32.8487 64.2707L33.1692 64.674L45.2571 79.1505C45.0296 78.8817 44.8228 78.5818 44.616 78.2923C44.4092 78.0027 44.3575 77.9407 44.2334 77.7546C44.1093 77.5684 43.9439 77.2892 43.8095 77.0514C43.675 76.8136 43.5716 76.6585 43.4579 76.4517C43.3441 76.2449 43.2407 75.9864 43.127 75.7485C43.0132 75.5107 42.8995 75.2729 42.8064 75.0247C42.7134 74.7765 42.6513 74.6008 42.579 74.3836C42.5066 74.1665 42.3515 73.7425 42.2584 73.4013C42.1653 73.06 42.0412 72.6051 41.9585 72.1914C41.9585 72.1914 41.9585 72.1914 41.9585 72.1294C41.8758 71.6744 41.8138 71.2195 41.7517 70.7541C41.7517 70.4956 41.7517 70.2268 41.6897 69.9683C41.6277 69.7098 41.6897 69.3789 41.638 69.079C41.5863 68.7791 41.638 68.531 41.638 68.2621C41.638 67.8382 41.638 67.4246 41.6897 66.9903C41.6897 66.3492 41.8345 65.7184 41.9482 65.0876L42.0413 64.581C42.1447 64.0329 42.2791 63.4952 42.4239 62.9679C42.4239 62.8645 42.4756 62.7714 42.4962 62.6783C42.672 62.0683 42.8788 61.4685 43.1063 60.8791C43.189 60.662 43.2925 60.4448 43.3752 60.2277C43.551 59.8141 43.7267 59.4005 43.9232 58.9972L44.2644 58.3044C44.4299 57.9735 44.616 57.6529 44.8021 57.3324C44.9882 57.0118 45.2985 56.4845 45.5673 56.0709C45.8362 55.6573 45.9396 55.4918 46.136 55.2126C46.3325 54.9334 46.529 54.6542 46.7358 54.3854C46.9426 54.1165 47.2321 53.7339 47.4906 53.4134L48.0386 52.762C48.3385 52.4207 48.6487 52.0795 48.959 51.7279C49.2692 51.3764 49.2898 51.3764 49.4656 51.2109C49.8896 50.787 50.3342 50.363 50.7892 49.9597L50.9753 49.7943C51.4923 49.3393 52.0093 48.905 52.5884 48.4914C52.7538 48.3673 52.9193 48.2432 53.0951 48.1295C53.488 47.84 53.8913 47.5608 54.3049 47.2919L54.9563 46.8783C55.3389 46.6508 55.7215 46.4233 56.1144 46.2062C56.5074 45.989 56.6211 45.927 56.8797 45.8029C57.1382 45.6788 57.5931 45.4514 57.9137 45.2859C58.2342 45.1205 58.5755 44.9757 58.9477 44.8413C59.5268 44.6034 60.1058 44.3759 60.6952 44.1795L60.9641 44.0968C61.5018 43.921 61.9981 43.7762 62.5875 43.6418L63.1872 43.4867C63.849 43.3419 64.5211 43.2075 65.2036 43.1144C72.1627 42.1321 78.1083 44.3863 81.7481 48.6775L69.6499 34.2528Z" fill="url(#paint0_linear)"/>
<path d="M114 54.0648C114 53.7029 114 53.3409 114 52.979C114 52.6171 114 52.3689 114 52.0587V51.0247L113.938 50.1148C113.938 49.7735 113.886 49.4323 113.855 49.0807C113.824 48.7292 113.793 48.481 113.762 48.1811C113.731 47.8812 113.762 47.7365 113.69 47.5193C113.617 47.3022 113.69 47.3436 113.69 47.2505C113.586 46.5473 113.473 45.8442 113.338 45.1824C113.338 45.1307 113.338 45.079 113.338 45.0377C113.193 44.2932 113.018 43.5693 112.832 42.8558C112.832 42.7835 112.832 42.7111 112.78 42.6387C112.728 42.5663 112.676 42.2871 112.625 42.1113C112.521 41.7287 112.418 41.3565 112.294 40.9842C112.17 40.612 112.128 40.4672 112.035 40.2087C111.942 39.9502 111.787 39.4849 111.663 39.1747L111.518 38.7714C111.518 38.637 111.405 38.5129 111.353 38.3785C111.239 38.089 111.115 37.8098 111.001 37.5306L110.629 36.7034C110.505 36.4345 110.371 36.1553 110.236 35.8865L109.864 35.3901C109.791 35.266 109.719 35.142 109.657 35.0075L109.264 34.2941C109.119 34.0149 108.964 33.746 108.799 33.4772L108.385 32.7844L108.168 32.4328C108.075 32.2777 107.972 32.1433 107.879 31.9882L107.444 31.3574C107.265 31.0885 107.079 30.83 106.886 30.5819L106.441 29.9718L106.255 29.734C106.017 29.4134 105.759 29.1032 105.511 28.8033L93.4228 14.3269C93.7434 14.6991 94.0433 15.092 94.3535 15.4953L94.7981 16.1054C94.998 16.3536 95.1841 16.6121 95.3565 16.8809L95.7908 17.5117L96.2975 18.3079C96.4422 18.5354 96.5766 18.7732 96.7111 19.0007C96.8455 19.2282 97.0316 19.5384 97.1764 19.8176L97.5693 20.5311L97.9726 21.3479C98.107 21.6168 98.2414 21.896 98.3655 22.1648L98.7378 22.9921C98.8515 23.2712 98.9756 23.5504 99.0893 23.84L99.3996 24.6362C99.5236 24.9878 99.6581 25.3497 99.7718 25.6702C99.8855 25.9908 99.9476 26.1872 100.03 26.4457C100.113 26.7042 100.258 27.1902 100.361 27.5728C100.465 27.9554 100.506 28.0692 100.568 28.3173C100.754 29.0308 100.93 29.7546 101.075 30.4888C101.075 30.5405 101.075 30.5922 101.075 30.6439C101.209 31.3367 101.323 32.0399 101.426 32.712C101.426 33.0222 101.499 33.3324 101.54 33.6426C101.581 33.9528 101.612 34.2423 101.633 34.5422C101.654 34.8421 101.695 35.2247 101.716 35.5762L101.778 36.4862V37.5202C101.778 37.8201 101.778 38.1303 101.778 38.4405C101.778 38.7507 101.778 39.154 101.778 39.4746C101.778 39.7951 101.778 40.095 101.778 40.4155C101.778 41.0256 101.716 41.646 101.664 42.2664C101.612 42.8869 101.519 43.7451 101.426 44.4793C101.426 44.6757 101.426 44.8722 101.343 45.0687C101.25 45.6994 101.157 46.3199 101.044 46.9403L100.982 47.2918C100.847 48.0157 100.692 48.7395 100.527 49.453C100.527 49.6391 100.444 49.8149 100.392 49.9907C100.247 50.5801 100.103 51.1591 99.9372 51.7485C99.9372 51.914 99.8442 52.0691 99.8028 52.2345C99.596 52.948 99.3685 53.6511 99.141 54.3026L98.9859 54.7369C98.7998 55.2849 98.593 55.7709 98.3862 56.3707C98.2828 56.6395 98.1794 56.9187 98.0656 57.1876C97.8795 57.6632 97.683 58.1492 97.4762 58.6145C97.3625 58.873 97.2591 59.1212 97.1454 59.3694C96.8972 59.9381 96.6387 60.4965 96.3595 61.0445C96.2871 61.1996 96.2251 61.3547 96.1424 61.5098C95.8011 62.2026 95.4392 62.8954 95.1083 63.5779C94.7774 64.2603 94.1984 65.191 93.7227 65.9768L93.4332 66.4421C93.0402 67.0729 92.637 67.7037 92.2234 68.3241C91.9649 68.7274 91.696 69.11 91.4168 69.5029L90.8067 70.3818C90.5069 70.7851 90.1967 71.1884 89.8968 71.602C89.5969 72.0156 89.4935 72.1397 89.2764 72.4085C88.78 73.0393 88.2423 73.6804 87.746 74.3008L87.4875 74.6007C87.0532 75.097 86.6189 75.6347 86.1743 76.0793C85.3367 77.01 84.4681 77.9096 83.5788 78.7885C83.3927 78.985 83.1962 79.1711 82.9998 79.3572C82.1208 80.2051 81.2212 81.0427 80.2906 81.8492L80.0735 82.0354C79.2049 82.7799 78.3156 83.5037 77.4056 84.2069L76.7749 84.7032C75.8132 85.4373 74.8309 86.1508 73.8279 86.8333L72.2045 87.8673L71.8943 88.0741C71.2118 88.4981 70.519 88.9117 69.8262 89.3253L69.092 89.7286C68.606 90.0078 68.1304 90.2766 67.6444 90.5351L66.7861 90.9694L65.4626 91.6415L64.3251 92.1792L63.0946 92.7273L61.9365 93.2236L60.7784 93.6889C60.1683 93.9268 59.5582 94.1439 58.9378 94.3611L58.0175 94.692C57.211 94.9608 56.3941 95.2193 55.5772 95.4571L55.2256 95.5605L55.0085 95.6226C54.3157 95.8087 53.6229 95.9948 52.9404 96.1603L52.227 96.3257C51.6686 96.4498 51.0998 96.5739 50.5311 96.6773L49.8383 96.8221C49.0628 96.9565 48.2769 97.0909 47.5014 97.2047C43.6695 97.7523 39.7881 97.8668 35.9306 97.5459C34.1313 97.3836 32.3429 97.1177 30.5743 96.7497C25.5787 95.7235 20.8326 93.7282 16.6045 90.8764C13.9218 89.0526 11.5034 86.8674 9.41797 84.3826L21.5058 98.8591C29.7781 108.755 43.5204 113.935 59.5893 111.681C60.3648 111.567 61.1507 111.433 61.9262 111.299L62.619 111.164L64.3251 110.802L65.0283 110.637C65.7211 110.471 66.4139 110.296 67.0964 110.099L67.3238 110.037L67.6134 109.944C68.4406 109.706 69.2575 109.448 70.0743 109.179L70.9947 108.858C71.6047 108.631 72.2252 108.414 72.8352 108.176L73.2799 108.01L73.9933 107.711L75.1515 107.214L76.382 106.666L77.5194 106.128L77.9847 105.901C78.2743 105.767 78.5534 105.611 78.843 105.467L79.7012 105.012C80.1872 104.753 80.6629 104.495 81.1489 104.215L81.8727 103.812L82.0485 103.709C82.6896 103.337 83.3203 102.954 83.9511 102.561L84.2613 102.354C84.7473 102.044 85.2333 101.734 85.709 101.413L85.8744 101.289C86.9084 100.607 87.8701 99.8931 88.8317 99.159C88.9248 99.0866 89.0179 99.0349 89.1006 98.9625L89.4625 98.673C90.3724 97.9595 91.2617 97.246 92.1303 96.4912L92.3061 96.3464C93.2367 95.5398 94.1363 94.7126 95.0153 93.8544L95.3255 93.5648L95.5943 93.2857C96.4836 92.4067 97.3522 91.5071 98.1897 90.5868C98.225 90.5464 98.263 90.5084 98.3035 90.4731C98.7068 90.0181 99.11 89.5528 99.503 89.0875C99.5857 88.9841 99.6787 88.891 99.7615 88.7979C100.258 88.2085 100.744 87.6088 101.219 87.0091L101.302 86.9057L101.902 86.0991C102.212 85.6958 102.522 85.2926 102.822 84.879L103.432 84C103.66 83.6691 103.897 83.3486 104.115 83.0281L104.239 82.8212C104.652 82.2008 105.056 81.5701 105.449 80.9393L105.738 80.474C106.214 79.6881 106.679 78.8816 107.113 78.075L107.175 77.9716C107.537 77.3202 107.868 76.6584 108.209 75.9966C108.292 75.8415 108.354 75.6864 108.427 75.5313C108.706 74.9833 108.964 74.4249 109.212 73.8562C109.326 73.608 109.43 73.3598 109.543 73.1013C109.75 72.636 109.947 72.15 110.133 71.6744C110.246 71.4055 110.35 71.1263 110.453 70.8575C110.557 70.5886 110.619 70.4542 110.691 70.2474L111.053 69.2134C111.053 69.0686 111.156 68.9238 111.198 68.7791C111.436 68.0759 111.663 67.3728 111.87 66.6593C111.87 66.4939 111.953 66.3388 112.004 66.1733C112.17 65.5839 112.315 65.0049 112.459 64.4155C112.511 64.2397 112.552 64.0639 112.594 63.8777C112.759 63.1643 112.914 62.4404 113.049 61.7166L113.111 61.365C113.224 60.7446 113.318 60.1242 113.411 59.4934C113.411 59.297 113.462 59.1005 113.493 58.9041C113.586 58.1699 113.669 57.4357 113.731 56.6912C113.731 56.1432 113.814 55.5951 113.835 55.0574C113.83 54.9817 113.83 54.9057 113.835 54.83C113.938 54.6749 113.938 54.375 114 54.0648Z" fill="url(#paint1_linear)"/>
<path d="M55.3703 1.52562C83.1444 -2.38303 103.898 15.9297 101.726 42.4113C99.5546 68.8929 75.2755 93.5339 47.5117 97.4322C19.7479 101.331 -1.01554 83.0282 1.15593 56.5362C3.3274 30.0443 27.5962 5.40324 55.3703 1.52562ZM49.7348 70.2785C61.7606 68.593 72.3078 57.8701 73.2487 46.413C74.1897 34.9559 65.1626 26.9939 53.1471 28.6897C41.1317 30.3855 30.5742 41.0981 29.6332 52.5448C28.6923 63.9916 37.709 71.964 49.7348 70.2785Z" fill="url(#paint2_linear)"/>
</g>
<defs>
<filter id="filter0_f" x="0" y="0" width="115" height="113.203" filterUnits="userSpaceOnUse" color-interpolation-filters="sRGB">
<feFlood flood-opacity="0" result="BackgroundImageFix"/>
<feBlend mode="normal" in="SourceGraphic" in2="BackgroundImageFix" result="shape"/>
<feGaussianBlur stdDeviation="0.5" result="effect1_foregroundBlur"/>
</filter>
<linearGradient id="paint0_linear" x1="18546.8" y1="9219.36" x2="16342.4" y2="12030.2" gradientUnits="userSpaceOnUse">
<stop stop-color="#FF8F0A"/>
<stop offset="1" stop-color="#FFC12B"/>
</linearGradient>
<linearGradient id="paint1_linear" x1="40578.9" y1="16478.2" x2="35220.2" y2="24727.4" gradientUnits="userSpaceOnUse">
<stop stop-color="#FFE9B5"/>
<stop offset="1" stop-color="#FFCB4E"/>
</linearGradient>
<linearGradient id="paint2_linear" x1="-84" y1="76.5" x2="147" y2="0.999995" gradientUnits="userSpaceOnUse">
<stop stop-color="#FFBE21"/>
<stop offset="1" stop-color="#FF7A00"/>
</linearGradient>
</defs>
</svg>
